<?xml version="1.0" encoding="utf-8"?>
<!-- Generator: Adobe Illustrator 26.5.0, SVG Export Plug-In . SVG Version: 6.00 Build 0)  -->
<svg version="1.1" xmlns="http://www.w3.org/2000/svg" xmlns:xlink="http://www.w3.org/1999/xlink" x="0px" y="0px" width="640px"
	 height="300px" viewBox="0 0 640 300" style="enable-background:new 0 0 640 300;" xml:space="preserve">
<style type="text/css">
	.st0{fill:#E30613;}
	.st1{fill:#FFFFFF;}
	.st2{fill-rule:evenodd;clip-rule:evenodd;fill:#FFFFFF;}
	.st3{fill-rule:evenodd;clip-rule:evenodd;fill:#E30613;}
</style>
<g id="Layer_1">
	<rect class="st0" width="640" height="300"/>
	<g transform="translate(-229.000000, -50.000000)">
		<g transform="translate(229.000000, 19.000000)">
			<g transform="translate(0.000000, 31.000000)">
				<path class="st1" d="M306,197.2c-5.5,0-8.6,3.4-8.6,9.3s3.1,9.2,8.6,9.2c5.4,0,8.6-3.4,8.6-9.2
					C314.5,200.5,311.4,197.2,306,197.2z M306,213.8c-3.9,0-6.4-2.6-6.4-7.4c0-4.8,2.3-7.5,6.4-7.5c3.9,0,6.4,2.6,6.4,7.5
					C312.3,211.2,310,213.8,306,213.8z M327.5,197.2c-2.7,0-4.8,1.1-6.1,3.3v-2.8h-2.1v17.6h2.1V205c0-3.7,2.2-5.8,5.7-5.8
					c3.8,0,4.6,1.7,4.6,5.3v11h2.1v-11.2c0-1.9-0.1-3.3-0.8-4.3C332.1,198,330.1,197.2,327.5,197.2z M339.7,215.2h2.1v-24.3h-2.1
					V215.2z M347.8,215.2h2.1v-17.6h-2.1V215.2z M347.8,193.8h2.1v-3.1h-2.1V193.8z M364.1,197.2c-2.7,0-4.8,1.1-6.1,3.3v-2.8h-2.1
					v17.6h2.1V205c0-3.7,2.2-5.8,5.7-5.8c3.8,0,4.6,1.7,4.6,5.3v11h2.1v-11.2c0-1.9-0.1-3.3-0.8-4.3
					C368.7,198,366.7,197.2,364.1,197.2z M383.3,197.2c-5,0-8.2,3.4-8.2,9.3c0,5.8,3.1,9.2,8.2,9.2c4.2,0,7.3-2.3,7.7-5.9h-2.1
					c-0.4,2.5-2.6,4.1-5.5,4.1c-3.6,0-6-2.5-6-7v-0.1h13.8v-0.6C391.3,200.4,388.2,197.2,383.3,197.2z M377.3,205.1
					c0.2-3.9,2.6-6.1,5.9-6.1s5.6,2.2,5.7,6.1H377.3z M409.1,192.6H407v5.1h-2.6v1.7h2.6V212c0,2.4,0.6,3.6,2.9,3.6
					c0.8,0,1.7-0.1,2.7-0.4v-1.6c-0.8,0.2-1.5,0.3-2.1,0.3c-1.1,0-1.3-0.6-1.3-1.9v-12.7h3.5v-1.7h-3.5v-5H409.1z M419,200.7v-3.1
					h-2.1v17.6h2.1v-9.7c0-4.1,1.9-6.1,5.6-6.1h0.3v-2.1h-0.2C422,197.2,420.1,198.2,419,200.7z M443,212v-9.6
					c0-3.5-2.3-5.3-6.8-5.3c-4.6,0-7.4,2.2-7.4,5.7h2.1c0.1-2.5,1.9-3.9,5.2-3.9c3.5,0,4.6,1.2,4.6,3.8c0,1.8-0.7,1.8-3.2,2.3
					c-2.5,0.2-4.7,0.2-6.7,1.1c-2,0.8-3,2.4-3,4.4c0,3.1,2.3,5.1,6.1,5.1c2.6,0,4.9-0.9,6.8-2.9v0.3c0,1.7,0.9,2.4,2.7,2.4
					c0.3,0,0.9,0,1.6-0.2v-1.5c-0.3,0-0.7,0-0.8,0C443,213.7,443,213.2,443,212z M434.1,213.8c-2.6,0-4.2-1.4-4.2-3.4
					c0-1.8,1.5-3.1,4.1-3.7c2.7-0.2,5-0.3,6.6-0.8v2.4C440.8,211.7,438.1,213.8,434.1,213.8z M462.6,200.7c-1.3-2.3-3.5-3.5-6.5-3.5
					c-5,0-8.3,3.5-8.3,9.3s3.2,9.3,8.2,9.3c2.9,0,5.1-1.2,6.6-3.5v2.9h2.1v-24.3h-2.1L462.6,200.7L462.6,200.7z M456.5,213.8
					c-4,0-6.4-2.7-6.4-7.5s2.3-7.5,6.4-7.5c3.9,0,6.3,2.6,6.3,7.5S460.5,213.8,456.5,213.8z M470.7,215.2h2.1v-17.6h-2.1V215.2z
					 M470.7,193.8h2.1v-3.1h-2.1V193.8z M487,197.2c-2.7,0-4.8,1.1-6.1,3.3v-2.8h-2.1v17.6h2.1V205c0-3.7,2.2-5.8,5.7-5.8
					c3.8,0,4.6,1.7,4.6,5.3v11h2.1v-11.2c0-1.9-0.1-3.3-0.8-4.3C491.5,198,489.5,197.2,487,197.2z M512.6,197.6v3.1
					c-1.5-2.3-3.6-3.5-6.5-3.5c-4.9,0-8.3,3.5-8.3,9.3s3.2,9.3,8.3,9.3c2.8,0,5-1.2,6.5-3.5v2.2c0,4.1-2.2,6.2-6.7,6.2
					c-3.1,0-5-1.3-5.2-3.4h-2.2c0.2,3.2,3,5.2,7.5,5.2c5.8,0,8.8-2.7,8.8-8.1v-16.6h-2.1L512.6,197.6L512.6,197.6z M506.6,213.8
					c-3.9,0-6.4-2.7-6.4-7.5s2.3-7.5,6.4-7.5c3.9,0,6.3,2.6,6.3,7.5S510.4,213.8,506.6,213.8z"/>
				<polygon class="st1" points="347,177.2 335.6,157.2 324.6,177.2 297.4,177.2 322.7,139.4 298.4,104.7 326.1,104.7 335.9,122.1 
					345.9,104.7 373.2,104.7 349,139.4 374.4,177.2 				"/>
				<path class="st1" d="M494.5,177.2c-8.9,0-15.5-3.6-20.5-11.3v9.5h-22.6V82.1h22.5V113c4.6-7.3,11.8-11.1,21-11.1
					c16.5,0,29,15,29,38.2C523.8,162.4,511.7,177.2,494.5,177.2z M487.3,119.9c-8.5,0-13.7,6.7-13.7,18.8c0,13,4.6,19.8,13.1,19.8
					c8.6,0,13.6-6.9,13.6-19.8C500.3,127,495.2,119.9,487.3,119.9z"/>
				<path class="st1" d="M433.2,121.6V104h-12.1V82.1h-23.5V104H388v17.6h9.6v31.3c0,5.4-3.3,31.2,35.4,22.6v-14.9
					c-1.1,0.1-2.2,0.1-3.1,0.1c-7.5,0-8.9-3.1-8.9-11.7v-27.5h12.1v0.1H433.2z"/>
				<rect x="120.7" y="100.2" class="st2" width="140.4" height="99.6"/>
				<path class="st2" d="M116.2,227h154V73h-154L116.2,227L116.2,227z"/>
			</g>
		</g>
	</g>
</g>
<g id="Layer_2">
	<path class="st3" d="M220.8,182.2c-0.7-0.6-1.3-1.2-2-1.8c-7-6.3-14.7-12.2-22.8-17.6c-7.3,4.4-15,8.6-23.1,12.2l-48-9.6
		c9.4-2.4,18.7-5.4,27.7-9c6-2.4,11.9-5.1,17.7-8c-3.6-1.7-7.2-3.2-11-4.8c-9-3.6-18.2-6.7-27.7-9.1l48-9.6c5.4,2.6,10.8,5.2,15.9,8
		c5.9-4.2,11.4-8.7,16.7-13.4c0.7-0.6,1.3-1.2,2-1.8l40.6-7.7c-10.1,13.7-22.4,26.2-36.6,37.3c16.9,12.2,31.4,26.6,43.2,42.3
		L220.8,182.2z"/>
</g>
</svg>
